PathFileType	4	(X/Y/Z)	1_Data\scaling.trc
DataRate	CameraRate	NumFrames	NumMarkers	Units	OrigDataRate	OrigDataStartFrame	OrigNumFrames
120.000000	120.000000	4	71	mm	120.000000	261	697
Frame#	Time	Sternum			Neck			RShoulder			LShoulder			Xiphoid			Thoracic			RAsis			LAsis			RPsis			LPsis			RElbow			RElbowMedial			RShoulderAnterior			RShoulderPosterior			RWrist			RRadius			RUlna			LElbow			LElbowMedial			LShoulderAnterior			LShoulderPosterior			LWrist			LUlna			LRadius			LThighSuperior			LThighInferior			LThighLateral			LKneeLateral			LKneeMedial			LPatella			LShankSuperior			LShankInferior			LShankLateral			LAnkleLateral			LAnkleMedial			RThighSuperior			RThighInferior			RThighLateral			RKneeLateral			RPatella			RShankSuperior			RShankInferior			RShankLateral			RAnkleLateral			RankleMedial			RHeel			RToe			RMidfootMedial			RMidfootLateral			RHindfoot			RMidfootSuperior			RToeMedial			RToeLateral			LHeel			LToe			LMidfootMedial			LMidfootLateral			LHindfoot			LMidfootSuperior			LToeMedial			LToeLateral			RKneeMedial			Lumbar			Oglobal			Sacral			Xglobal			Yglobal			Zglobal			*68			*69			*70			
		X1	Y1	Z1	X2	Y2	Z2	X3	Y3	Z3	X4	Y4	Z4	X5	Y5	Z5	X6	Y6	Z6	X7	Y7	Z7	X8	Y8	Z8	X9	Y9	Z9	X10	Y10	Z10	X11	Y11	Z11	X12	Y12	Z12	X13	Y13	Z13	X14	Y14	Z14	X15	Y15	Z15	X16	Y16	Z16	X17	Y17	Z17	X18	Y18	Z18	X19	Y19	Z19	X20	Y20	Z20	X21	Y21	Z21	X22	Y22	Z22	X23	Y23	Z23	X24	Y24	Z24	X25	Y25	Z25	X26	Y26	Z26	X27	Y27	Z27	X28	Y28	Z28	X29	Y29	Z29	X30	Y30	Z30	X31	Y31	Z31	X32	Y32	Z32	X33	Y33	Z33	X34	Y34	Z34	X35	Y35	Z35	X36	Y36	Z36	X37	Y37	Z37	X38	Y38	Z38	X39	Y39	Z39	X40	Y40	Z40	X41	Y41	Z41	X42	Y42	Z42	X43	Y43	Z43	X44	Y44	Z44	X45	Y45	Z45	X46	Y46	Z46	X47	Y47	Z47	X48	Y48	Z48	X49	Y49	Z49	X50	Y50	Z50	X51	Y51	Z51	X52	Y52	Z52	X53	Y53	Z53	X54	Y54	Z54	X55	Y55	Z55	X56	Y56	Z56	X57	Y57	Z57	X58	Y58	Z58	X59	Y59	Z59	X60	Y60	Z60	X61	Y61	Z61	X62	Y62	Z62	X63	Y63	Z63	X64	Y64	Z64	X65	Y65	Z65	X66	Y66	Z66	X67	Y67	Z67	X68	Y68	Z68	X69	Y69	Z69	X70	Y70	Z70	X71	Y71	Z71	

262	2.175	538.2672119140625	1456.753051757812	-464.857452392578	384.6998901367188	1572.779907226562	-454.1876220703124	435.2769470214844	1554.827880859375	-299.6105041503905	411.4423828125	1554.669921875	-600.3079833984374	563.939208984375	1302.163818359375	-457.0712280273437	295.1015319824219	1353.020263671875	-450.4943542480468	490.8326416015625	1039.169921875	-321.9438781738281	504.2352294921875	1044.552978515625	-603.8045043945311	305.5607299804688	1068.440673828125	-412.5042419433593	304.466796875	1068.14697265625	-514.8040771484374	520.8436889648438	1302.1103515625	-94.13095855712882	550.8001708984375	1240.191284179688	-165.328628540039	488.8864135742188	1497.24267578125	-308.8947448730468	375.9203491210938	1502.861572265625	-281.4967956542968	788.4422607421875	1330.368774414062	-86.9366912841796	801.6232299804688	1305.002319335938	-133.480484008789	789.16162109375	1303.134521484375	-49.98517990112297	536.2828979492188	1301.196533203125	-795.7020263671874	546.5444946289062	1241.698608398438	-724.2711181640624	473.419677734375	1507.169067382812	-617.2686157226561	362.3126220703125	1496.24560546875	-630.9441528320311	804.2911987304688	1327.1640625	-777.0615844726561	798.3546142578125	1292.100463867188	-809.0824584960936	811.0863647460938	1305.417602539062	-734.4380493164061	445.2445068359375	874.35693359375	-658.0903930664062	469.7160034179688	643.3045043945312	-639.9146118164062	544.5426025390625	747.2767333984375	-586.7839965820312	473.9760131835938	558.3056640625	-642.703369140625	466.2879638671875	565.76318359375	-500.0934448242187	552.298828125	554.5978393554688	-577.2832641601562	465.2833251953125	406.1115112304688	-660.9006958007812	429.9278564453125	205.2519226074219	-643.3357543945312	488.0683288574219	294.6461791992188	-602.2189331054688	410.8298034667969	124.504638671875	-643.5900268554688	439.5361633300781	125.240219116211	-557.9403686523438	426.52587890625	846.5889282226562	-286.3016662597656	441.0001831054688	610.4098510742188	-310.3416137695312	530.4498901367188	764.0729370117188	-339.1591491699218	433.5902709960938	545.5061645507812	-309.3794555664062	527.2471313476562	540.0428466796875	-350.0375366210937	420.7393798828125	448.815185546875	-303.888916015625	413.9140319824219	194.5145263671875	-335.8052673339844	480.229248046875	318.8637390136719	-367.5776977539062	404.9527587890625	120.0347061157227	-339.5173645019531	436.8088684082031	137.5243530273438	-425.7861328125	331.8214721679688	79.60254669189456	-394.8757629394531	646.295654296875	62.54609298706057	-351.5381469726562	552.7532958984375	49.34573364257815	-414.6348266601562	541.0665893554688	43.35623931884768	-295.6072692871094	486.3515625	43.65883255004885	-309.7757263183594	514.5189208984375	110.8034591674805	-364.4584350585938	597.936279296875	50.08047866821291	-403.9349365234375	588.7718505859375	48.27771377563479	-300.9443359375	341.5209350585938	83.37457275390629	-591.0540771484375	648.8052368164062	73.79903411865239	-642.7893676757812	555.5165405273438	50.70783996582035	-578.4094848632812	541.885986328125	47.1751976013184	-694.9028930664062	487.8355407714844	46.54703140258793	-680.0758056640625	523.5074462890625	112.6402206420899	-625.5152587890625	597.257568359375	51.47223663330082	-586.96435546875	586.1824340820312	56.88361740112309	-690.11767578125	477.3191223144531	543.1376953125	-445.3103332519531	317.7645874023438	1170.346557617188	-459.2646789550781	0	0	0	305.0137634277344	1068.293823242188	-463.6541748046874	200	0	0	0	1.224646799147353e-14	-200	0	200	1.224646799147353e-14	nan	nan	nan	nan	nan	nan	nan	nan	nan	
263	2.183333333333333	538.2028198242188	1456.760620117188	-464.7979125976561	384.6502685546875	1572.77734375	-454.2667541503905	435.17822265625	1554.771362304688	-299.6330261230468	411.4110412597656	1554.685791015625	-600.3508300781249	563.8574829101562	1302.265869140625	-457.1924743652343	295.0969543457031	1353.006103515625	-450.5028991699218	490.81640625	1039.144653320312	-321.9836425781249	504.2362365722656	1044.553833007812	-603.8300170898436	305.5290832519531	1068.436645507812	-412.5346374511718	304.4349670410156	1068.16552734375	-514.8734741210936	520.7832641601562	1301.913208007812	-94.26268768310538	550.65283203125	1240.180786132812	-165.7617645263671	488.77685546875	1497.200927734375	-308.8597106933593	375.8179931640625	1502.827758789062	-281.4468994140624	788.364990234375	1330.361572265625	-86.99011230468741	801.56201171875	1305.066772460938	-133.4662017822265	789.1052856445312	1303.109008789062	-50.03101348876945	536.2794799804688	1301.220581054688	-795.7210083007811	546.6053466796875	1241.682006835938	-724.2385253906249	473.41943359375	1507.172973632812	-617.3032226562499	362.3208618164062	1496.28369140625	-630.9509887695311	804.3291015625	1327.1923828125	-777.0629272460936	798.3713989257812	1292.118286132812	-809.0448608398436	811.0712280273438	1305.691162109375	-733.8749999999999	445.2336730957031	874.3621826171875	-658.1088256835938	469.7103271484375	643.3306274414062	-639.9580078125	544.4891357421875	747.3353881835938	-586.7435302734375	473.9556274414062	558.3118286132812	-642.7183837890625	466.2208862304688	565.7722778320312	-500.1140136718749	552.2459106445312	554.6292724609375	-577.2614135742188	465.2725219726562	406.1298522949219	-660.9618530273438	429.885009765625	205.2589111328125	-643.3319702148438	488.0624694824219	294.6084899902344	-602.2724609375	410.8133850097656	124.5021209716797	-643.5938110351562	439.6440734863281	125.3243484497071	-558.1127319335938	426.5076599121094	846.5840454101562	-286.3526916503906	441.0077819824219	610.402099609375	-310.3908691406249	530.45068359375	764.0935668945312	-339.2337646484374	433.5653076171875	545.51220703125	-309.3713684082031	527.2340698242188	540.0369873046875	-350.0594787597656	420.7391967773438	448.812255859375	-303.9091796875	413.9060668945312	194.5408477783203	-335.8113708496094	480.2108764648438	318.8560180664062	-367.5774230957031	404.9350280761719	120.0365829467774	-339.4986877441406	436.8500671386719	137.5329132080078	-425.8024291992188	331.8280334472656	79.6685485839844	-394.9165954589844	646.288330078125	62.54703521728518	-351.5702514648438	552.9698486328125	49.3797416687012	-414.7776184082031	541.0640258789062	43.35830307006838	-295.5785217285156	486.349365234375	43.67369842529299	-309.7558898925781	514.5107421875	110.8021697998047	-364.460205078125	597.9345703125	50.09280395507815	-403.9211730957031	588.8182373046875	48.29582214355471	-300.9911499023438	341.5222473144531	83.31746673583989	-590.9439697265625	648.8106079101562	73.85657501220707	-642.8001098632812	555.504150390625	50.7055702209473	-578.4389038085938	541.8746337890625	47.19007873535161	-694.8857421875	487.8218994140625	46.52507781982426	-680.0861206054688	523.4982299804688	112.6366729736329	-625.523681640625	597.3098754882812	51.43464279174808	-586.9309692382812	586.1692504882812	56.87779235839848	-690.1337890625	477.3097534179688	543.1287841796875	-445.3353271484374	317.7671508789062	1170.348510742188	-459.2959289550781	0	0	0	304.9820251464844	1068.301025390625	-463.7040405273437	200	0	0	0	1.224646799147353e-14	-200	0	200	1.224646799147353e-14	nan	nan	nan	nan	nan	nan	nan	nan	nan	
264	2.191666666666666	538.1492919921875	1456.754638671875	-464.7978210449218	384.6129455566406	1572.8154296875	-454.1552429199218	435.0521545410156	1554.768676757812	-299.6254882812499	411.370849609375	1554.7001953125	-600.3507080078124	563.798828125	1302.290161132812	-457.2471923828124	295.0570373535156	1353.002319335938	-450.5481262207031	490.7715759277344	1039.142944335938	-322.0267944335937	504.1983947753906	1044.572875976562	-603.8589477539061	305.5171508789062	1068.39111328125	-412.6760253906249	304.4441833496094	1068.15625	-514.9508666992186	520.723876953125	1301.609497070312	-94.55432891845695	550.9273071289062	1240.080078125	-165.8898468017577	488.6750793457031	1497.2021484375	-308.8092041015624	375.7078857421875	1502.77490234375	-281.4774475097655	788.2825317382812	1330.374389648438	-86.97601318359366	801.4902954101562	1305.221069335938	-133.5701599121093	789.0420532226562	1303.070678710938	-50.09984588623039	536.2950439453125	1301.194213867188	-795.6823730468749	546.6025390625	1241.688232421875	-724.2125244140624	472.6072998046875	1506.94677734375	-617.2305297851561	362.2734069824219	1496.274291992188	-630.9761352539061	804.3378295898438	1327.215576171875	-776.9796752929686	798.3720703125	1292.160034179688	-808.9555053710936	811.1204223632812	1305.8154296875	-733.5869750976561	445.1849975585938	874.3704223632812	-658.180908203125	469.6933898925781	643.32373046875	-639.9920654296875	544.4503784179688	747.3370361328125	-586.8004150390625	474.1073913574219	558.2992553710938	-642.7925415039062	466.120849609375	565.834716796875	-500.1485900878906	552.221435546875	554.6257934570312	-577.3148803710938	465.2404479980469	406.1098937988282	-660.9837646484375	429.7212219238281	205.2258911132813	-643.2987670898438	488.0171203613281	294.6315917968751	-602.2488403320312	410.7950744628906	124.4995346069336	-643.5973510742188	439.5484619140625	125.2306365966797	-557.9708862304688	426.4644775390625	846.583740234375	-286.3948364257812	441.00146484375	610.400390625	-310.4255371093749	530.4193725585938	764.0863037109375	-339.2553405761718	433.5758056640625	545.4949340820312	-309.4121398925781	527.2335815429688	540.0481567382812	-350.1049804687499	420.7119750976562	448.8966369628906	-303.9040832519531	413.8949279785156	194.5079040527344	-335.8429870605469	480.2289123535156	318.8531799316406	-367.6051635742188	404.9652099609375	120.0339050292969	-339.4992980957031	436.8618469238281	137.5366821289063	-425.8091125488281	331.8160705566406	79.63821411132815	-394.8953552246094	646.2789306640625	62.55798721313479	-351.5472106933594	552.9708862304688	49.38017654418948	-414.7517395019531	541.0831909179688	43.30883789062502	-295.6472473144531	486.3345642089844	43.60209655761721	-309.7900390625	514.5140380859375	110.8257446289063	-364.4378662109375	597.9190673828125	50.10212326049807	-403.9234924316406	588.7046508789062	48.17625808715822	-300.9668273925781	341.4485778808594	83.34627532958989	-591.0619506835938	648.7941284179688	73.82280731201176	-642.7667236328125	555.4912719726562	50.68328094482425	-578.4741821289062	541.8450927734375	47.19744110107426	-694.8692626953125	487.7709655761719	46.53572463989262	-680.0671997070312	523.4769897460938	112.6555099487305	-625.5448608398438	597.3208618164062	51.44459915161136	-586.8936157226562	586.1464233398438	56.86644744873051	-690.1329345703125	477.31298828125	543.1370849609375	-445.3839111328124	317.7044677734375	1170.327270507812	-459.3288269042968	0	0	0	304.9806518554688	1068.273681640625	-463.8134460449218	200	0	0	0	1.224646799147353e-14	-200	0	200	1.224646799147353e-14	nan	nan	nan	nan	nan	nan	nan	nan	nan	
265	2.2	538.0684204101562	1456.75927734375	-464.7421874999999	384.5248413085938	1572.775512695312	-454.3057861328124	434.9503784179688	1554.713134765625	-299.6604614257811	411.3158569335938	1554.720825195312	-600.3639526367186	563.7639770507812	1302.326904296875	-457.2917175292968	295.0166625976562	1353.003051757812	-450.6298217773437	490.7426147460938	1039.136840820312	-322.0898132324218	504.1742553710938	1044.592895507812	-603.9175415039061	305.475830078125	1068.392333984375	-412.6691894531249	304.3676452636719	1068.156372070312	-514.9624633789061	520.6385498046875	1301.3125	-94.80641174316398	550.9694213867188	1239.91455078125	-166.0632324218749	488.5529479980469	1497.192993164062	-308.8042602539061	375.5700378417969	1502.729370117188	-281.5047302246093	788.1773681640625	1330.372680664062	-86.99380493164054	801.4539794921875	1305.282592773438	-133.565460205078	788.9534912109375	1303.009521484375	-50.18757247924797	536.3038330078125	1301.202392578125	-795.6306152343749	546.6589965820312	1241.71435546875	-724.1795654296874	472.5437927246094	1506.951171875	-617.2145385742186	362.2415466308594	1496.297973632812	-630.9986572265624	804.337158203125	1327.240478515625	-776.8721923828124	798.0318603515625	1292.073364257812	-808.3179931640624	811.1079711914062	1305.826171875	-733.5594482421874	445.1137084960938	874.3807373046875	-658.19970703125	469.6515197753906	643.356201171875	-640.0995483398438	544.4229125976562	747.324462890625	-586.8348999023438	474.107666015625	558.3284301757812	-642.8404541015625	466.7398376464844	565.26708984375	-500.5996398925781	552.1964111328125	554.584716796875	-577.4461669921875	465.212158203125	406.1006164550782	-660.9830932617188	429.6539306640625	205.1988220214844	-643.2623901367188	488.0063171386719	294.6303405761719	-602.2545166015625	410.7310485839844	124.5102005004883	-643.5910034179688	439.5437927246094	125.2790832519532	-557.92236328125	426.4479064941406	846.572509765625	-286.4252014160156	441.0023803710938	610.3992919921875	-310.4585876464843	530.4170532226562	764.0972900390625	-339.3163146972656	433.6087951660156	545.45751953125	-309.4473266601562	527.2185668945312	540.0592651367188	-350.1515197753906	420.7127685546875	448.892822265625	-303.9458312988281	413.8960876464844	194.5296020507813	-335.8564453125	480.2283325195312	318.8493347167969	-367.6135864257812	404.9493408203125	120.0417404174805	-339.4853820800781	436.8148803710938	137.5278472900391	-425.7926635742188	331.9076538085938	79.76335906982425	-394.5130310058594	646.268798828125	62.57593536376955	-351.5461730957031	552.6113891601562	49.03240966796878	-414.2711181640625	541.0816040039062	43.34815979003908	-295.6084289550781	486.3539428710938	43.59178161621096	-309.81201171875	514.4830932617188	110.8022918701172	-364.4622192382812	597.9011840820312	50.09898757934572	-403.9241333007812	588.6932373046875	48.24174499511721	-301.1626281738281	341.4590454101562	83.31006622314457	-590.9967041015625	648.7935180664062	73.86065673828129	-642.79296875	555.5146484375	50.7014198303223	-578.4159545898438	541.8458862304688	47.17479705810551	-694.8612060546875	487.7271423339844	46.52824401855473	-680.0596313476562	523.486572265625	112.6492080688477	-625.5148315429688	597.2227783203125	51.50204086303714	-586.9798583984375	586.1490478515625	56.86857604980473	-690.1046752929688	477.3016052246094	543.1453247070312	-445.4335327148437	317.6717834472656	1170.325317382812	-459.3813476562499	0	0	0	304.9217529296875	1068.2744140625	-463.8158264160156	200	0	0	0	1.224646799147353e-14	-200	0	200	1.224646799147353e-14	nan	nan	nan	nan	nan	nan	nan	nan	nan	
